<svg xmlns="http://www.w3.org/2000/svg" xmlns:xlink="http://www.w3.org/1999/xlink" width="1024" zoomAndPan="magnify" viewBox="0 0 768 767.999994" height="1024" preserveAspectRatio="xMidYMid meet" version="1.0"><defs><clipPath id="47db1cc934"><path d="M 76.800781 78.820312 L 687.300781 78.820312 L 687.300781 689.320312 L 76.800781 689.320312 Z M 76.800781 78.820312 " clip-rule="nonzero"/></clipPath><clipPath id="bba784d0d5"><path d="M 213.195312 213.195312 L 554.445312 213.195312 L 554.445312 554.445312 L 213.195312 554.445312 Z M 213.195312 213.195312 " clip-rule="nonzero"/></clipPath></defs><rect x="-76.8" width="921.6" fill="#ffffff" y="-76.799999" height="921.599993" fill-opacity="1"/><rect x="-76.8" width="921.6" fill="#ffffff" y="-76.799999" height="921.599993" fill-opacity="1"/><g clip-path="url(#47db1cc934)"><path fill="#104879" d="M 381.972656 78.820312 C 213.53125 78.820312 76.800781 215.550781 76.800781 383.996094 C 76.800781 552.4375 213.53125 689.167969 381.972656 689.167969 C 550.417969 689.167969 687.148438 552.4375 687.148438 383.996094 C 687.148438 215.550781 550.417969 78.820312 381.972656 78.820312 Z M 381.972656 95.773438 C 541.253906 95.773438 670.195312 224.714844 670.195312 383.996094 C 670.195312 543.273438 541.253906 672.214844 381.972656 672.214844 C 222.695312 672.214844 93.753906 543.273438 93.753906 383.996094 C 93.753906 224.714844 222.695312 95.773438 381.972656 95.773438 Z M 381.972656 95.773438 " fill-opacity="1" fill-rule="nonzero"/></g><g clip-path="url(#bba784d0d5)"><path fill="#104879" d="M 526.328125 213.195312 L 241.660156 213.195312 C 225.964844 213.195312 213.195312 225.964844 213.195312 241.660156 L 213.195312 526.328125 C 213.195312 542.023438 225.964844 554.796875 241.660156 554.796875 L 526.328125 554.796875 C 542.023438 554.796875 554.796875 542.023438 554.796875 526.328125 L 554.796875 241.660156 C 554.796875 225.964844 542.023438 213.195312 526.328125 213.195312 Z M 543.410156 241.660156 L 543.410156 281.515625 L 416.679688 281.515625 C 409.222656 281.515625 402.519531 277.371094 399.191406 270.707031 L 378.984375 230.296875 C 377.941406 228.210938 376.640625 226.335938 375.210938 224.582031 L 526.328125 224.582031 C 535.746094 224.582031 543.410156 232.242188 543.410156 241.660156 Z M 241.660156 224.582031 L 351.308594 224.582031 C 358.765625 224.582031 365.46875 228.726562 368.800781 235.386719 L 389.003906 275.796875 C 390.046875 277.882812 391.351562 279.761719 392.78125 281.515625 L 224.582031 281.515625 L 224.582031 241.660156 C 224.582031 232.242188 232.242188 224.582031 241.660156 224.582031 Z M 526.328125 543.410156 L 241.660156 543.410156 C 232.242188 543.410156 224.582031 535.746094 224.582031 526.328125 L 224.582031 292.902344 L 543.410156 292.902344 L 543.410156 526.328125 C 543.410156 535.746094 535.746094 543.410156 526.328125 543.410156 Z M 526.328125 543.410156 " fill-opacity="1" fill-rule="nonzero"/></g><path fill="#104879" d="M 253.046875 270.128906 C 262.464844 270.128906 270.128906 262.464844 270.128906 253.046875 C 270.128906 243.628906 262.464844 235.96875 253.046875 235.96875 C 243.628906 235.96875 235.96875 243.628906 235.96875 253.046875 C 235.96875 262.464844 243.628906 270.128906 253.046875 270.128906 Z M 253.046875 247.355469 C 256.191406 247.355469 258.742188 249.90625 258.742188 253.046875 C 258.742188 256.191406 256.191406 258.742188 253.046875 258.742188 C 249.90625 258.742188 247.355469 256.191406 247.355469 253.046875 C 247.355469 249.90625 249.90625 247.355469 253.046875 247.355469 Z M 253.046875 247.355469 " fill-opacity="1" fill-rule="nonzero"/><path fill="#104879" d="M 298.59375 270.128906 C 308.011719 270.128906 315.675781 262.464844 315.675781 253.046875 C 315.675781 243.628906 308.011719 235.96875 298.59375 235.96875 C 289.175781 235.96875 281.515625 243.628906 281.515625 253.046875 C 281.515625 262.464844 289.175781 270.128906 298.59375 270.128906 Z M 298.59375 247.355469 C 301.738281 247.355469 304.289062 249.90625 304.289062 253.046875 C 304.289062 256.191406 301.738281 258.742188 298.59375 258.742188 C 295.453125 258.742188 292.902344 256.191406 292.902344 253.046875 C 292.902344 249.90625 295.453125 247.355469 298.59375 247.355469 Z M 298.59375 247.355469 " fill-opacity="1" fill-rule="nonzero"/><path fill="#104879" d="M 344.140625 270.128906 C 353.558594 270.128906 361.222656 262.464844 361.222656 253.046875 C 361.222656 243.628906 353.558594 235.96875 344.140625 235.96875 C 334.722656 235.96875 327.0625 243.628906 327.0625 253.046875 C 327.0625 262.464844 334.722656 270.128906 344.140625 270.128906 Z M 344.140625 247.355469 C 347.285156 247.355469 349.835938 249.90625 349.835938 253.046875 C 349.835938 256.191406 347.285156 258.742188 344.140625 258.742188 C 341 258.742188 338.449219 256.191406 338.449219 253.046875 C 338.449219 249.90625 341 247.355469 344.140625 247.355469 Z M 344.140625 247.355469 " fill-opacity="1" fill-rule="nonzero"/><path fill="#104879" d="M 429.542969 270.128906 L 509.25 270.128906 C 518.664062 270.128906 526.328125 262.464844 526.328125 253.046875 C 526.328125 243.628906 518.664062 235.96875 509.25 235.96875 L 429.542969 235.96875 C 420.125 235.96875 412.460938 243.628906 412.460938 253.046875 C 412.460938 262.464844 420.125 270.128906 429.542969 270.128906 Z M 429.542969 247.355469 L 509.25 247.355469 C 512.390625 247.355469 514.941406 249.90625 514.941406 253.046875 C 514.941406 256.191406 512.390625 258.742188 509.25 258.742188 L 429.542969 258.742188 C 426.398438 258.742188 423.847656 256.191406 423.847656 253.046875 C 423.847656 249.90625 426.398438 247.355469 429.542969 247.355469 Z M 429.542969 247.355469 " fill-opacity="1" fill-rule="nonzero"/><path fill="#104879" d="M 503.554688 383.996094 L 258.742188 383.996094 C 252.460938 383.996094 247.355469 389.101562 247.355469 395.382812 L 247.355469 418.15625 C 247.355469 424.433594 252.460938 429.542969 258.742188 429.542969 L 503.554688 429.542969 C 509.835938 429.542969 514.941406 424.433594 514.941406 418.15625 L 514.941406 395.382812 C 514.941406 389.101562 509.835938 383.996094 503.554688 383.996094 Z M 258.742188 418.15625 L 258.742188 395.382812 L 503.554688 395.382812 L 503.566406 418.15625 Z M 258.742188 418.15625 " fill-opacity="1" fill-rule="nonzero"/><path fill="#104879" d="M 503.554688 440.929688 L 258.742188 440.929688 C 252.460938 440.929688 247.355469 446.035156 247.355469 452.316406 L 247.355469 475.089844 C 247.355469 481.367188 252.460938 486.476562 258.742188 486.476562 L 503.554688 486.476562 C 509.835938 486.476562 514.941406 481.367188 514.941406 475.089844 L 514.941406 452.316406 C 514.941406 446.035156 509.835938 440.929688 503.554688 440.929688 Z M 258.742188 475.089844 L 258.742188 452.316406 L 503.554688 452.316406 L 503.566406 475.089844 Z M 258.742188 475.089844 " fill-opacity="1" fill-rule="nonzero"/><path fill="#104879" d="M 338.449219 497.863281 C 329.03125 497.863281 321.367188 505.523438 321.367188 514.941406 C 321.367188 524.359375 329.03125 532.023438 338.449219 532.023438 C 347.863281 532.023438 355.527344 524.359375 355.527344 514.941406 C 355.527344 505.523438 347.863281 497.863281 338.449219 497.863281 Z M 338.449219 520.636719 C 335.304688 520.636719 332.753906 518.085938 332.753906 514.941406 C 332.753906 511.800781 335.304688 509.25 338.449219 509.25 C 341.589844 509.25 344.140625 511.800781 344.140625 514.941406 C 344.140625 518.085938 341.589844 520.636719 338.449219 520.636719 Z M 338.449219 520.636719 " fill-opacity="1" fill-rule="nonzero"/><path fill="#104879" d="M 429.542969 497.863281 L 383.996094 497.863281 C 374.578125 497.863281 366.914062 505.523438 366.914062 514.941406 C 366.914062 524.359375 374.578125 532.023438 383.996094 532.023438 L 429.542969 532.023438 C 438.957031 532.023438 446.621094 524.359375 446.621094 514.941406 C 446.621094 505.523438 438.957031 497.863281 429.542969 497.863281 Z M 429.542969 520.636719 L 383.996094 520.636719 C 380.851562 520.636719 378.300781 518.085938 378.300781 514.941406 C 378.300781 511.800781 380.851562 509.25 383.996094 509.25 L 429.542969 509.25 C 432.683594 509.25 435.234375 511.800781 435.234375 514.941406 C 435.234375 518.085938 432.683594 520.636719 429.542969 520.636719 Z M 429.542969 520.636719 " fill-opacity="1" fill-rule="nonzero"/><path fill="#104879" d="M 298.59375 366.914062 C 301.742188 366.914062 304.289062 364.371094 304.289062 361.222656 L 304.289062 344.140625 L 309.980469 344.140625 C 313.128906 344.140625 315.675781 341.597656 315.675781 338.449219 C 315.675781 335.300781 313.128906 332.753906 309.980469 332.753906 L 304.289062 332.753906 L 304.289062 321.367188 L 321.367188 321.367188 C 324.515625 321.367188 327.0625 318.824219 327.0625 315.675781 C 327.0625 312.527344 324.515625 309.980469 321.367188 309.980469 L 298.59375 309.980469 C 295.445312 309.980469 292.902344 312.527344 292.902344 315.675781 L 292.902344 361.222656 C 292.902344 364.371094 295.445312 366.914062 298.59375 366.914062 Z M 298.59375 366.914062 " fill-opacity="1" fill-rule="nonzero"/><path fill="#104879" d="M 355.527344 366.914062 C 364.945312 366.914062 372.609375 359.25 372.609375 349.835938 L 372.609375 327.0625 C 372.609375 317.644531 364.945312 309.980469 355.527344 309.980469 C 346.109375 309.980469 338.449219 317.644531 338.449219 327.0625 L 338.449219 349.835938 C 338.449219 359.25 346.109375 366.914062 355.527344 366.914062 Z M 349.835938 327.0625 C 349.835938 323.917969 352.386719 321.367188 355.527344 321.367188 C 358.671875 321.367188 361.222656 323.917969 361.222656 327.0625 L 361.222656 349.835938 C 361.222656 352.976562 358.671875 355.527344 355.527344 355.527344 C 352.386719 355.527344 349.835938 352.976562 349.835938 349.835938 Z M 349.835938 327.0625 " fill-opacity="1" fill-rule="nonzero"/><path fill="#104879" d="M 389.6875 366.914062 C 392.835938 366.914062 395.382812 364.371094 395.382812 361.222656 L 395.382812 344.140625 L 401.074219 344.140625 C 404.21875 344.140625 406.769531 346.691406 406.769531 349.835938 L 406.769531 361.222656 C 406.769531 364.371094 409.3125 366.914062 412.460938 366.914062 C 415.609375 366.914062 418.15625 364.371094 418.15625 361.222656 L 418.15625 349.835938 C 418.15625 345.445312 416.441406 341.476562 413.714844 338.449219 C 416.445312 335.417969 418.15625 331.449219 418.15625 327.0625 C 418.15625 317.644531 410.492188 309.980469 401.074219 309.980469 L 389.6875 309.980469 C 386.539062 309.980469 383.996094 312.527344 383.996094 315.675781 L 383.996094 361.222656 C 383.996094 364.371094 386.539062 366.914062 389.6875 366.914062 Z M 395.382812 321.367188 L 401.074219 321.367188 C 404.21875 321.367188 406.769531 323.917969 406.769531 327.0625 C 406.769531 330.203125 404.21875 332.753906 401.074219 332.753906 L 395.382812 332.753906 Z M 395.382812 321.367188 " fill-opacity="1" fill-rule="nonzero"/><path fill="#104879" d="M 435.234375 366.914062 C 438.382812 366.914062 440.929688 364.371094 440.929688 361.222656 L 440.929688 336.226562 L 447.4375 347.066406 C 449.492188 350.496094 455.144531 350.496094 457.199219 347.066406 L 463.707031 336.226562 L 463.707031 361.222656 C 463.707031 364.371094 466.253906 366.914062 469.402344 366.914062 C 472.550781 366.914062 475.09375 364.371094 475.09375 361.222656 L 475.09375 315.675781 C 475.09375 313.117188 473.386719 310.867188 470.921875 310.1875 C 468.476562 309.503906 465.832031 310.542969 464.519531 312.742188 L 452.320312 333.074219 L 440.121094 312.742188 C 438.808594 310.550781 436.175781 309.515625 433.71875 310.1875 C 431.25 310.867188 429.546875 313.117188 429.546875 315.675781 L 429.546875 361.222656 C 429.546875 364.371094 432.09375 366.914062 435.242188 366.914062 Z M 435.234375 366.914062 " fill-opacity="1" fill-rule="nonzero"/></svg>