<svg xmlns="http://www.w3.org/2000/svg" viewBox="0 0 163.94 163.8"><path d="M13.93,44.12c6.81-11.94,21.29-37.29,50.85-43,20.89-4,44.78,2.67,58.9,18,14.56,15.85,5.41,26.44,21.88,63.89,11.44,26,20.26,30.92,18,44.13-2.75,16.35-19.83,30.2-36.45,34.92-24.53,7-33.95-9.92-79.63-12.47C-11.2,149.27-6.53,80,13.93,44.12Z" style="fill:#b3dcea"/><path d="M77.75,65.74l0,5-.41,62.54v3.24a1.83,1.83,0,0,1-1.82,1.82h-26a1.83,1.83,0,0,1-1.82-1.82v-3.24l-.44-67.39s0-.07,0-.1Z" style="fill:#942322"/><path d="M77.93,65.84a.31.31,0,0,0,0-.1c0-12.55-11.09-18.2-11.09-22.74V28a.47.47,0,0,0-.46-.46H59a.46.46,0,0,0-.45.46V43c0,4.54-11.1,10.19-11.1,22.74" style="fill:#942322"/><path d="M75.84,65.55a18.47,18.47,0,0,0-2.47-9l-21.22-.2a24.36,24.36,0,0,0-2.64,9.42h0l.42,66.37v4.11H75.42V133.8l.41-65.29v-3Z" style="fill:#57190c"/><rect x="58.39" y="25.81" width="8.6" height="12.21" rx="0.06" style="fill:#385b65"/><rect x="57.75" y="20.61" width="9.88" height="4.02" rx="1.02" style="fill:#385b65"/><rect x="57.52" y="22.62" width="10.34" height="4.21" rx="0.82" style="fill:#1a2e35"/><path d="M114.09,65.74l0,5-.4,63.2v2.58a1.84,1.84,0,0,1-1.83,1.82h-26A1.83,1.83,0,0,1,84,136.47v-4.23l-.43-66.4a.34.34,0,0,1,0-.1h0C83.61,53.19,94.7,47.54,94.7,43V28a.46.46,0,0,1,.46-.46h7.37A.46.46,0,0,1,103,28V43c0,4.54,11.09,10.19,11.09,22.74Z" style="fill:#cca30a"/><path d="M114.09,65.74l0,5-.4,63.2v2.58a1.84,1.84,0,0,1-1.83,1.82h-26A1.83,1.83,0,0,1,84,136.47v-4.23l-.43-66.4a.34.34,0,0,1,0-.1Z" style="fill:#cca30a"/><path d="M111.8,65.55a18.47,18.47,0,0,0-2.46-9l-21.22-.2a24.18,24.18,0,0,0-2.64,9.42h0l.42,66.37v4.11h25.48V133.8l.41-65.29v-3Z" style="fill:#fec707"/><rect x="94.55" y="25.81" width="8.6" height="12.21" rx="0.06" style="fill:#00938d"/><rect x="93.91" y="20.61" width="9.88" height="4.02" rx="1.02" style="fill:#00938d"/><rect x="93.68" y="22.62" width="10.34" height="4.21" rx="0.82" style="fill:#257f82"/><rect x="51.19" y="64.31" width="22.61" height="40.43" style="fill:#1a2e35"/><rect x="51.19" y="106.7" width="22.61" height="4.45" style="fill:#385b65"/><rect x="89.31" y="107.22" width="18.67" height="2.23" style="fill:#7db9ad"/><rect x="89.31" y="110.62" width="18.67" height="2.23" style="fill:#7db9ad"/><path d="M108,105.52H89.31V77.91C89.31,70,95.86,62,108,62Z" style="fill:#fff"/><path d="M51.83,137.91a24.46,24.46,0,0,1-4-.71s-4.8-1.42-4.8-4.85V114.13h-.84v18.22c0,3.43-4.8,4.85-4.8,4.85a24.25,24.25,0,0,1-4,.71.3.3,0,0,0-.29.3v.11a.31.31,0,0,0,.31.31H51.81a.31.31,0,0,0,.3-.31v-.11A.29.29,0,0,0,51.83,137.91Z" style="fill:#fff"/><path d="M56.47,100.28c0-4.06-3.45-15.49-3.45-15.49l-20,.37s-4.35,11.38-4.35,15.06,0,0,0,0a13.91,13.91,0,0,0,27.82.07h0Z" style="fill:#fff"/><path d="M56.12,103.37a13.92,13.92,0,0,1-27.47-3.15Z" style="fill:#57190c"/><path d="M133.36,138.52a23.59,23.59,0,0,1-4-.7s-4.8-1.43-4.8-4.85V114.75h-.84V133c0,3.42-4.81,4.85-4.81,4.85a23.59,23.59,0,0,1-4,.7.31.31,0,0,0-.28.31v.11a.3.3,0,0,0,.3.31h18.49a.3.3,0,0,0,.3-.31v-.11A.31.31,0,0,0,133.36,138.52Z" style="fill:#fff"/><path d="M135.53,103.46c0-3.34-4-18-4-18H116.7s-4,15-4,18,0,0,0,0a11.44,11.44,0,0,0,22.87.06h0Z" style="fill:#fff"/><path d="M135.08,100.12a22,22,0,0,1,.45,3.34h0a11.44,11.44,0,0,1-22.87-.06L131,100.72Z" style="fill:#fec707"/></svg>